<svg xmlns="http://www.w3.org/2000/svg" xmlns:xlink="http://www.w3.org/1999/xlink" x="0" y="0" width="702" height="237" style="
        width:702px;
        height:237px;
        background: #FFF;
        fill: none;
">
        <svg xmlns="http://www.w3.org/2000/svg"/>
        
        <svg xmlns="http://www.w3.org/2000/svg" class="role-diagram-draw-area" style="overflow: visible;"><g class="shapes-region" style="stroke: black; fill: none;"><g class="composite-shape"><path class="real" d=" M43.9,135.9 L44.23,52.9 L458.63,54.56 L458.55,74.05 L577.15,74.52 L576.99,114.52 L458.39,114.05 L458.3,137.56 L43.9,135.9 Z" style="stroke-width: 1; stroke: rgb(0, 0, 0); fill: rgb(155, 155, 155); fill-opacity: 0.67;"/></g><g class="composite-shape"><path class="real" d=" M622.01,108.72 L595.61,108.61 L595.6,111.11 L578.02,106.04 L595.64,101.11 L595.63,103.61 L622.03,103.72 Z" style="stroke-width: 1; stroke: rgb(0, 0, 0); fill: rgb(250, 2, 2); fill-opacity: 1;"/></g><g class="composite-shape"><path class="real" d=" M622.06,95.72 L595.66,95.61 L595.65,98.11 L578.08,93.04 L595.7,88.11 L595.69,90.61 L622.08,90.72 Z" style="stroke-width: 1; stroke: rgb(0, 0, 0); fill: rgb(250, 2, 2); fill-opacity: 1;"/></g><g class="composite-shape"><path class="real" d=" M622.12,82.72 L595.72,82.61 L595.71,85.11 L578.13,80.04 L595.75,75.11 L595.74,77.61 L622.14,77.72 Z" style="stroke-width: 1; stroke: rgb(0, 0, 0); fill: rgb(250, 2, 2); fill-opacity: 1;"/></g><g class="arrow-line"><path class="connection real" stroke-dasharray="" d="  M457.86,45.04 L46.85,45.9" style="stroke: rgb(0, 0, 0); stroke-width: 1; fill: none; fill-opacity: 1;"/><g stroke="#000" transform="matrix(0.9999978067553793,-0.0020943935712194888,0.0020943935712194888,0.9999978067553793,44.85464869214699,45.90181242054618)" style="stroke: rgb(0, 0, 0); stroke-width: 1;"><path d=" M10.93,-3.29 Q4.96,-0.45 0,0 Q4.96,0.45 10.93,3.29"/></g></g><g class="arrow-line"><path class="connection real" stroke-dasharray="" d="  M44.85,45.9 L455.86,45.05" style="stroke: rgb(0, 0, 0); stroke-width: 1; fill: none; fill-opacity: 1;"/><g stroke="#000" transform="matrix(-0.9999978067553793,0.0020943935712196115,-0.0020943935712196115,-0.9999978067553793,457.86141944046204,45.04409149310405)" style="stroke: rgb(0, 0, 0); stroke-width: 1;"><path d=" M10.93,-3.29 Q4.96,-0.45 0,0 Q4.96,0.45 10.93,3.29"/></g></g><g class="arrow-line"><path class="connection real" stroke-dasharray="" d="  M32.22,54.85 L32.88,134.85" style="stroke: rgb(0, 0, 0); stroke-width: 1; fill: none; fill-opacity: 1;"/><g stroke="#000" transform="matrix(-0.00820295548752226,-0.9999663551946484,0.9999663551946484,-0.00820295548752226,32.894887842570824,136.85372203376394)" style="stroke: rgb(0, 0, 0); stroke-width: 1;"><path d=" M10.93,-3.29 Q4.96,-0.45 0,0 Q4.96,0.45 10.93,3.29"/></g></g><g class="arrow-line"><path class="connection real" stroke-dasharray="" d="  M32.89,136.85 L32.24,56.85" style="stroke: rgb(0, 0, 0); stroke-width: 1; fill: none; fill-opacity: 1;"/><g stroke="#000" transform="matrix(0.008202955487523271,0.9999663551946484,-0.9999663551946484,0.008202955487523271,32.22406411256478,54.85036847110006)" style="stroke: rgb(0, 0, 0); stroke-width: 1;"><path d=" M10.93,-3.29 Q4.96,-0.45 0,0 Q4.96,0.45 10.93,3.29"/></g></g><g class="arrow-line"><path class="connection real" stroke-dasharray="" d="  M443.68,74.5 L443.46,115.51" style="stroke: rgb(0, 0, 0); stroke-width: 1; fill: none; fill-opacity: 1;"/><g stroke="#000" transform="matrix(0.005235963831419959,-0.9999862922474267,0.9999862922474267,0.005235963831419959,443.4487490065769,117.50742664139153)" style="stroke: rgb(0, 0, 0); stroke-width: 1;"><path d=" M10.93,-3.29 Q4.96,-0.45 0,0 Q4.96,0.45 10.93,3.29"/></g></g><g class="arrow-line"><path class="connection real" stroke-dasharray="" d="  M443.45,117.51 L443.67,76.5" style="stroke: rgb(0, 0, 0); stroke-width: 1; fill: none; fill-opacity: 1;"/><g stroke="#000" transform="matrix(-0.005235963831418948,0.9999862922474267,-0.9999862922474267,-0.005235963831418948,443.67562273546855,74.49639865656957)" style="stroke: rgb(0, 0, 0); stroke-width: 1;"><path d=" M10.93,-3.29 Q4.96,-0.45 0,0 Q4.96,0.45 10.93,3.29"/></g></g><g class="arrow-line"><path class="connection real" stroke-dasharray="" d="  M574.96,122.03 L461.96,122.56" style="stroke: rgb(0, 0, 0); stroke-width: 1; fill: none; fill-opacity: 1;"/><g stroke="#000" transform="matrix(0.999988896715596,-0.004712371539373374,0.004712371539373374,0.999988896715596,459.95567539633447,122.56793420252693)" style="stroke: rgb(0, 0, 0); stroke-width: 1;"><path d=" M10.93,-3.29 Q4.96,-0.45 0,0 Q4.96,0.45 10.93,3.29"/></g></g><g class="arrow-line"><path class="connection real" stroke-dasharray="" d="  M459.96,122.57 L572.96,122.04" style="stroke: rgb(0, 0, 0); stroke-width: 1; fill: none; fill-opacity: 1;"/><g stroke="#000" transform="matrix(-0.999988896715596,0.0047123715393743845,-0.0047123715393743845,-0.999988896715596,574.9587630740407,122.0295806069702)" style="stroke: rgb(0, 0, 0); stroke-width: 1;"><path d=" M10.93,-3.29 Q4.96,-0.45 0,0 Q4.96,0.45 10.93,3.29"/></g></g><g/></g><g/><g/><g/></svg>
        <svg xmlns="http://www.w3.org/2000/svg" xmlns:xlink="http://www.w3.org/1999/xlink" width="700" height="235" style="width:700px;height:235px;font-family:Asana-Math, Asana;background:#FFF;"><g transform="matrix(0.9999999847691291,0.0001745329243133368,-0.0001745329243133368,0.9999999847691291,0.016444658430827985,-0.09815424606797762)"><g><g><g transform="matrix(1,0,0,1,552.046875,99.9765625)"><path transform="matrix(0.017,0,0,-0.017,0,0)" d="M795 664L798 692L782 692L691 689C676 689 655 689 611 690L548 692L545 664L593 662C617 661 628 653 628 634C628 629 628 626 627 622L556 177C508 119 478 93 427 68C389 48 352 39 314 39C229 39 175 84 175 154C175 171 177 187 182 215L270 692L239 691C212 690 192 689 181 689C171 689 151 690 123 691L91 692L88 664L140 662C166 661 174 656 174 639C174 630 171 602 167 581L103 206C99 185 97 160 97 144C97 43 164 -19 276 -19C320 -19 361 -9 409 15C468 44 500 69 552 129C544 83 538 57 525 2L530 -3L552 -3L614 0C618 0 640 -1 672 -2L704 -3L709 25L649 29C626 31 617 37 617 50C617 65 618 70 623 106L708 613C714 651 721 657 759 661Z" stroke="rgb(0,0,0)" stroke-opacity="1" stroke-width="8" fill="rgb(0,0,0)" fill-opacity="1"></path></g></g><g><g><g><g><g transform="matrix(1,0,0,1,565.765625,102.9859375)"><path transform="matrix(0.0119,0,0,-0.0119,0,0)" d="M263 689C108 689 29 566 29 324C29 207 50 106 85 57C120 8 176 -20 238 -20C389 -20 465 110 465 366C465 585 400 689 263 689ZM245 654C342 654 381 556 381 316C381 103 343 15 251 15C154 15 113 116 113 360C113 571 150 654 245 654Z" stroke="rgb(0,0,0)" stroke-opacity="1" stroke-width="8" fill="rgb(0,0,0)" fill-opacity="1"></path></g></g></g></g></g></g></g><g transform="matrix(0.999931629399233,0.011693439485246057,-0.011693439485246057,0.999931629399233,0.3991969633611916,-2.899747938239976)"><g><g><text x="243.796875" y="24.1875" style="white-space:pre;stroke:none;fill:rgb(0,0,0);fill-opacity:1;font-size:15px;font-family:Arial, Helvetica, sans-serif;font-weight:400;font-style:normal;dominant-baseline:text-before-edge;text-decoration:none solid rgb(0, 0, 0);">L</text></g></g></g><g transform="matrix(-0.9999919428800662,-0.00401424649846379,0.00401424649846379,-0.9999919428800662,1024.4862008844734,271.55627835615314)"><g><g><text x="508.140625" y="126.25" style="white-space:pre;stroke:none;fill:rgb(0,0,0);fill-opacity:1;font-size:15px;font-family:Arial, Helvetica, sans-serif;font-weight:400;font-style:normal;dominant-baseline:text-before-edge;text-decoration:none solid rgb(0, 0, 0);">l</text></g></g></g><g transform="matrix(0.9999813422410571,0.006108614390678361,-0.006108614390678361,0.9999813422410571,0.5909821196748339,-2.6458267445181605)"><g><g><text x="429.046875" y="86.921875" style="white-space:pre;stroke:none;fill:rgb(0,0,0);fill-opacity:1;font-size:15px;font-family:Arial, Helvetica, sans-serif;font-weight:400;font-style:normal;dominant-baseline:text-before-edge;text-decoration:none solid rgb(0, 0, 0);">d</text></g></g></g><g transform="matrix(0.999933655059592,-0.011518918315753645,0.011518918315753645,0.999933655059592,-1.101985690149668,0.26517133387024217)"><g><g><text x="17.046875" y="87.296875" style="white-space:pre;stroke:none;fill:rgb(0,0,0);fill-opacity:1;font-size:15px;font-family:Arial, Helvetica, sans-serif;font-weight:400;font-style:normal;dominant-baseline:text-before-edge;text-decoration:none solid rgb(0, 0, 0);">D</text></g></g></g></svg>
</svg>
